# xmcd
#
# Track frame offsets:
#	150
#	12597
#	29232
#	40981
#	53048
#	65880
#	78286
#	91914
#	104374
#	118202
#	131368
#	145311
#	161283
#	175313
#
# Disc length: 2581 seconds
#
# Revision: 0
# Processed by: cddbd v1.5.2PL0 Copyright (c) Steve Scherf et al.
# Submitted via: dBpowerAMP V4.0
#
DISCID=c40a130e
DTITLE=Various Artist - Cine Romance
DYEAR=1900
DGENRE=Blues
TTITLE0=Vic Damone - An Affair to Remember
TTITLE1=Doris Day - Secret Love
TTITLE2=Percy Faith - Summer Place
TTITLE3=Nat King Cole - Love is a Many Splendored Thing
TTITLE4=Blue Notes - As Time Goes By
TTITLE5=Andy Williams - Moon River
TTITLE6=Earl Grant - Tender is The Night
TTITLE7=Earl Grant - Tender is The Night
TTITLE8=Debbie Reinolds - Tammy
TTITLE9=Frank Pourcel - Un Homme Et Une Feme
TTITLE10=The Four Aces - Three Coins In A Fountain 
TTITLE11=David Shephred - Moonglow
TTITLE12=Oliver - Jean
TTITLE13=Ai Kanzaki - Good Bye Again
EXTD=
EXTT0=
EXTT1=
EXTT2=
EXTT3=
EXTT4=
EXTT5=
EXTT6=
EXTT7=
EXTT8=
EXTT9=
EXTT10=
EXTT11=
EXTT12=
EXTT13=
PLAYORDER=
